<svg xmlns="http://www.w3.org/2000/svg" data-name="Layer 1" width="888" height="741.04834" viewBox="0 0 888 741.04834" xmlns:xlink="http://www.w3.org/1999/xlink"><path d="M521.89611,153.52468c-78.75359,0-142.85741,64.10426-142.85741,142.85741S443.14252,439.2395,521.89611,439.2395s142.85742-64.10382,142.85742-142.85741S600.6497,153.52468,521.89611,153.52468Zm0,237.429c-52.26861,0-94.57161-42.30256-94.57161-94.57161s42.303-94.57161,94.57161-94.57161,94.57162,42.30256,94.57162,94.57161S574.16472,390.9537,521.89611,390.9537Z" transform="translate(-156 -79.47583)" fill="#e6e6e6"/><path d="M678.89611,303.52468c-1.39062,0-2.5,1.10938-2.5,2.5v27c0,1.39063,1.10938,2.5,2.5,2.5s2.5-1.10937,2.5-2.5v-27C681.39611,304.63406,680.28673,303.52468,678.89611,303.52468Z" transform="translate(-156 -79.47583)" fill="#e6e6e6"/><path d="M678.89611,363.52468c-1.39062,0-2.5,1.10938-2.5,2.5v27c0,1.39063,1.10938,2.5,2.5,2.5s2.5-1.10937,2.5-2.5v-27C681.39611,364.63406,680.28673,363.52468,678.89611,363.52468Z" transform="translate(-156 -79.47583)" fill="#e6e6e6"/><path d="M678.89611,243.52468c-1.39062,0-2.5,1.10938-2.5,2.5v27c0,1.39063,1.10938,2.5,2.5,2.5s2.5-1.10937,2.5-2.5v-27C681.39611,244.63406,680.28673,243.52468,678.89611,243.52468Z" transform="translate(-156 -79.47583)" fill="#e6e6e6"/><path d="M678.89611,183.52468c-1.39062,0-2.5,1.10938-2.5,2.5v27c0,1.39063,1.10938,2.5,2.5,2.5s2.5-1.10937,2.5-2.5v-27C681.39611,184.63406,680.28673,183.52468,678.89611,183.52468Z" transform="translate(-156 -79.47583)" fill="#e6e6e6"/><path d="M364.89611,303.52468c-1.39062,0-2.5,1.10938-2.5,2.5v27c0,1.39063,1.10938,2.5,2.5,2.5s2.5-1.10937,2.5-2.5v-27C367.39611,304.63406,366.28673,303.52468,364.89611,303.52468Z" transform="translate(-156 -79.47583)" fill="#e6e6e6"/><path d="M364.89611,363.52468c-1.39062,0-2.5,1.10938-2.5,2.5v27c0,1.39063,1.10938,2.5,2.5,2.5s2.5-1.10937,2.5-2.5v-27C367.39611,364.63406,366.28673,363.52468,364.89611,363.52468Z" transform="translate(-156 -79.47583)" fill="#e6e6e6"/><path d="M364.89611,243.52468c-1.39062,0-2.5,1.10938-2.5,2.5v27c0,1.39063,1.10938,2.5,2.5,2.5s2.5-1.10937,2.5-2.5v-27C367.39611,244.63406,366.28673,243.52468,364.89611,243.52468Z" transform="translate(-156 -79.47583)" fill="#e6e6e6"/><path d="M364.89611,183.52468c-1.39062,0-2.5,1.10938-2.5,2.5v27c0,1.39063,1.10938,2.5,2.5,2.5s2.5-1.10937,2.5-2.5v-27C367.39611,184.63406,366.28673,183.52468,364.89611,183.52468Z" transform="translate(-156 -79.47583)" fill="#e6e6e6"/><path d="M618.89611,243.52468h-27c-1.39062,0-2.5,1.10938-2.5,2.5s1.10938,2.5,2.5,2.5h27c1.39063,0,2.5-1.10937,2.5-2.5S620.28673,243.52468,618.89611,243.52468Z" transform="translate(-156 -79.47583)" fill="#e6e6e6"/><path d="M558.89611,243.52468h-27c-1.39062,0-2.5,1.10938-2.5,2.5s1.10938,2.5,2.5,2.5h27c1.39063,0,2.5-1.10937,2.5-2.5S560.28673,243.52468,558.89611,243.52468Z" transform="translate(-156 -79.47583)" fill="#e6e6e6"/><path d="M498.89611,243.52468h-27c-1.39062,0-2.5,1.10938-2.5,2.5s1.10938,2.5,2.5,2.5h27c1.39063,0,2.5-1.10937,2.5-2.5S500.28673,243.52468,498.89611,243.52468Z" transform="translate(-156 -79.47583)" fill="#e6e6e6"/><path d="M438.89611,243.52468h-27c-1.39062,0-2.5,1.10938-2.5,2.5s1.10938,2.5,2.5,2.5h27c1.39063,0,2.5-1.10937,2.5-2.5S440.28673,243.52468,438.89611,243.52468Z" transform="translate(-156 -79.47583)" fill="#e6e6e6"/><path d="M618.89611,363.52468h-27c-1.39062,0-2.5,1.10938-2.5,2.5s1.10938,2.5,2.5,2.5h27c1.39063,0,2.5-1.10937,2.5-2.5S620.28673,363.52468,618.89611,363.52468Z" transform="translate(-156 -79.47583)" fill="#e6e6e6"/><path d="M558.89611,363.52468h-27c-1.39062,0-2.5,1.10938-2.5,2.5s1.10938,2.5,2.5,2.5h27c1.39063,0,2.5-1.10937,2.5-2.5S560.28673,363.52468,558.89611,363.52468Z" transform="translate(-156 -79.47583)" fill="#e6e6e6"/><path d="M498.89611,363.52468h-27c-1.39062,0-2.5,1.10938-2.5,2.5s1.10938,2.5,2.5,2.5h27c1.39063,0,2.5-1.10937,2.5-2.5S500.28673,363.52468,498.89611,363.52468Z" transform="translate(-156 -79.47583)" fill="#e6e6e6"/><path d="M438.89611,363.52468h-27c-1.39062,0-2.5,1.10938-2.5,2.5s1.10938,2.5,2.5,2.5h27c1.39063,0,2.5-1.10937,2.5-2.5S440.28673,363.52468,438.89611,363.52468Z" transform="translate(-156 -79.47583)" fill="#e6e6e6"/><path d="M618.89611,183.52468h-27c-1.39062,0-2.5,1.10938-2.5,2.5s1.10938,2.5,2.5,2.5h27c1.39063,0,2.5-1.10937,2.5-2.5S620.28673,183.52468,618.89611,183.52468Z" transform="translate(-156 -79.47583)" fill="#e6e6e6"/><path d="M558.89611,183.52468h-27c-1.39062,0-2.5,1.10938-2.5,2.5s1.10938,2.5,2.5,2.5h27c1.39063,0,2.5-1.10937,2.5-2.5S560.28673,183.52468,558.89611,183.52468Z" transform="translate(-156 -79.47583)" fill="#e6e6e6"/><path d="M498.89611,183.52468h-27c-1.39062,0-2.5,1.10938-2.5,2.5s1.10938,2.5,2.5,2.5h27c1.39063,0,2.5-1.10937,2.5-2.5S500.28673,183.52468,498.89611,183.52468Z" transform="translate(-156 -79.47583)" fill="#e6e6e6"/><path d="M438.89611,183.52468h-27c-1.39062,0-2.5,1.10938-2.5,2.5s1.10938,2.5,2.5,2.5h27c1.39063,0,2.5-1.10937,2.5-2.5S440.28673,183.52468,438.89611,183.52468Z" transform="translate(-156 -79.47583)" fill="#e6e6e6"/><path d="M618.89611,303.52468h-27c-1.39062,0-2.5,1.10938-2.5,2.5s1.10938,2.5,2.5,2.5h27c1.39063,0,2.5-1.10937,2.5-2.5S620.28673,303.52468,618.89611,303.52468Z" transform="translate(-156 -79.47583)" fill="#e6e6e6"/><path d="M558.89611,303.52468h-27c-1.39062,0-2.5,1.10938-2.5,2.5s1.10938,2.5,2.5,2.5h27c1.39063,0,2.5-1.10937,2.5-2.5S560.28673,303.52468,558.89611,303.52468Z" transform="translate(-156 -79.47583)" fill="#e6e6e6"/><path d="M498.89611,303.52468h-27c-1.39062,0-2.5,1.10938-2.5,2.5s1.10938,2.5,2.5,2.5h27c1.39063,0,2.5-1.10937,2.5-2.5S500.28673,303.52468,498.89611,303.52468Z" transform="translate(-156 -79.47583)" fill="#e6e6e6"/><path d="M438.89611,303.52468h-27c-1.39062,0-2.5,1.10938-2.5,2.5s1.10938,2.5,2.5,2.5h27c1.39063,0,2.5-1.10937,2.5-2.5S440.28673,303.52468,438.89611,303.52468Z" transform="translate(-156 -79.47583)" fill="#e6e6e6"/><path d="M407.85334,504.45856H241.40773c-4.98633,0-9.04345-4.05713-9.04345-9.04346s4.05712-9.04345,9.04345-9.04345H407.85334c4.98633,0,9.04346,4.05712,9.04346,9.04345S412.83967,504.45856,407.85334,504.45856Z" transform="translate(-156 -79.47583)" fill="#e6e6e6"/><path d="M407.85334,541.08H241.40773c-4.98633,0-9.04345-4.05713-9.04345-9.04346s4.05712-9.04346,9.04345-9.04346H407.85334c4.98633,0,9.04346,4.05713,9.04346,9.04346S412.83967,541.08,407.85334,541.08Z" transform="translate(-156 -79.47583)" fill="#e6e6e6"/><path d="M407.85334,577.70148H241.40773c-4.98633,0-9.04345-4.05713-9.04345-9.04346s4.05712-9.04346,9.04345-9.04346H407.85334c4.98633,0,9.04346,4.05713,9.04346,9.04346S412.83967,577.70148,407.85334,577.70148Z" transform="translate(-156 -79.47583)" fill="#e6e6e6"/><path d="M407.85334,614.32295H241.40773c-4.98633,0-9.04345-4.05713-9.04345-9.04346s4.05712-9.04346,9.04345-9.04346H407.85334c4.98633,0,9.04346,4.05713,9.04346,9.04346S412.83967,614.32295,407.85334,614.32295Z" transform="translate(-156 -79.47583)" fill="#e6e6e6"/><path d="M784.92126,258.52417h-69.75a4.50508,4.50508,0,0,1,0-9.01h69.75a4.50508,4.50508,0,0,1,0,9.01Z" transform="translate(-156 -79.47583)" fill="#ccc"/><path d="M784.92126,294.52417h-69.75a4.50508,4.50508,0,0,1,0-9.01h69.75a4.50508,4.50508,0,0,1,0,9.01Z" transform="translate(-156 -79.47583)" fill="#ccc"/><path d="M784.92126,330.52417h-69.75a4.50508,4.50508,0,0,1,0-9.01h69.75a4.50508,4.50508,0,0,1,0,9.01Z" transform="translate(-156 -79.47583)" fill="#ccc"/><path d="M784.92126,366.52417h-69.75a4.50508,4.50508,0,0,1,0-9.01h69.75a4.50508,4.50508,0,0,1,0,9.01Z" transform="translate(-156 -79.47583)" fill="#ccc"/><path d="M784.92126,402.52417h-69.75a4.50508,4.50508,0,0,1,0-9.01h69.75a4.50508,4.50508,0,0,1,0,9.01Z" transform="translate(-156 -79.47583)" fill="#ccc"/><polygon points="593.514 383.551 593.514 383.551 593.514 383.551 593.514 383.551" fill="#3f3d56"/><polygon points="632.698 683.651 637.037 683.651 640.396 655.525 632.696 655.526 632.698 683.651" fill="#ffb8b8"/><path d="M786.42052,759.2728l12.55781-.00046h.00051a8.00282,8.00282,0,0,1,8.00232,8.00186v.26l-20.56065.00076Z" transform="translate(-156 -79.47583)" fill="#2f2e41"/><polygon points="535.397 683.651 539.736 683.651 543.095 655.525 535.395 655.526 535.397 683.651" fill="#ffb8b8"/><path d="M689.11972,759.2728l12.55781-.00046h.00051a8.00282,8.00282,0,0,1,8.00232,8.00186v.26l-20.56065.00076Z" transform="translate(-156 -79.47583)" fill="#2f2e41"/><path d="M704.11972,739.2728l-2.00415-11.1582s-4.99585,1.1582-4.99585-7.8418l-7-138-25,138,9,19,7.99585-1.1582s-1.99585-9.8418,1.00415-11.8418l2-4,2.00415-11.1582s4.99585,1.1582,4.99585-7.8418l4-43,10-48,13,200Z" transform="translate(-156 -79.47583)" fill="#2f2e41"/><circle cx="601.11972" cy="320.2728" r="24" fill="#ffb8b8"/><path d="M764.11972,423.2728l-36-1-29,10s-2,16-2,33,6,100,6,100l-8,106-8,15,24-2,22-1s0-10,4-10,7,10,7,10l22-4,22-200Z" transform="translate(-156 -79.47583)" fill="#575a89"/><path d="M764.11972,423.2728l-36-1-29,10s-2,16-2,33,6,100,6,100l-8,106-8,15,24-2,22-1s0-10,4-10,7,10,7,10l22-4,22-200Z" transform="translate(-156 -79.47583)" opacity="0.1"/><path d="M734.11972,432.2728l-5,2-37,4s-22-6-23,3-5,16-5,16l45,9,40-10Z" transform="translate(-156 -79.47583)" fill="#575a89"/><path d="M699.11972,455.2728l-7,15s-20,13-21,60-2,87-2,87l-9,96s10,14,48,14,45-7,45-7l-2-144,13-150Z" transform="translate(-156 -79.47583)" fill="#2f2e41"/><path d="M722.11972,444.2728l12,1s20,9,21,56,2,90,2,90l9,96s-10,14-48,14-45-7-45-7l2-144-13-150Z" transform="translate(-156 -79.47583)" fill="#2f2e41"/><path d="M764.61972,473.7728l-5,2s4,40-6,81-4,48-4,48l-19-27-25-3s18-61,25-83,7-33,7-33Z" transform="translate(-156 -79.47583)" fill="#2f2e41"/><path d="M656.61972,473.7728l5,2s-4,40,6,81,4,48,4,48l19-27,25-3s-18-61-25-83-7-33-7-33Z" transform="translate(-156 -79.47583)" fill="#2f2e41"/><path d="M753.61972,384.7728s-4-2-8,0-10,7-10,7-13,4-14-4,1-9,1-9,9-11,13-13,27-4,27-4l5,2s-8,19-8,21S753.61972,384.7728,753.61972,384.7728Z" transform="translate(-156 -79.47583)" fill="#2f2e41"/><path d="M723.11972,383.2728s-9-3-11,3-1,8-1,8-8,10-4,13,9,1,9,1,3-9,10-9Z" transform="translate(-156 -79.47583)" fill="#ffb8b8"/><path d="M712.11972,404.2728l-5,2s-10-5-12-5-31,10-31,10-9,14-10,34,20,41,20,41l5,60s7,39,4,46-4,12-4,12l44-3s-4-11-1-13,5-24,5-24l2-61,15-72-10-15Z" transform="translate(-156 -79.47583)" fill="#575a89"/><path d="M638.11972,455.2728l-5-1s-9,13-10,19-3,60-3,60-8,39-3,46,4,12,4,12l44,3s-4-11-1-13-5-24-5-24l-2-61Z" transform="translate(-156 -79.47583)" fill="#575a89"/></svg>
